<mxfile host="app.diagrams.net" modified="2021-11-30T06:20:29.216Z" agent="5.0 (Windows NT 10.0; Win64; x64) AppleWebKit/537.36 (KHTML, like Gecko) Chrome/96.0.4664.45 Safari/537.36" etag="fgCVHQSp0nNIC4mU0eB5" version="15.8.6" type="github">
  <diagram id="6qR9xU4-GeA75lPMptxo" name="Page-1">
    <mxGraphModel dx="1718" dy="1550" grid="1" gridSize="10" guides="1" tooltips="1" connect="1" arrows="1" fold="1" page="1" pageScale="1" pageWidth="850" pageHeight="1100" math="0" shadow="0">
      <root>
        <mxCell id="0" />
        <mxCell id="1" parent="0" />
        <mxCell id="FvMZWkguoixhMki-qg48-23" value="" style="rounded=0;whiteSpace=wrap;html=1;fontSize=13;fillColor=#66FF66;gradientColor=#E6FFCC;align=left;verticalAlign=top;" parent="1" vertex="1">
          <mxGeometry x="-20" y="40" width="680" height="380" as="geometry" />
        </mxCell>
        <mxCell id="FvMZWkguoixhMki-qg48-7" value="docker-compose.yml" style="rounded=0;whiteSpace=wrap;html=1;gradientColor=#E6FFCC;fillColor=#66FF66;verticalAlign=top;align=left;" parent="1" vertex="1">
          <mxGeometry x="48" y="160" width="482" height="240" as="geometry" />
        </mxCell>
        <mxCell id="FvMZWkguoixhMki-qg48-3" value="" style="edgeStyle=orthogonalEdgeStyle;rounded=0;orthogonalLoop=1;jettySize=auto;html=1;" parent="1" source="FvMZWkguoixhMki-qg48-19" target="FvMZWkguoixhMki-qg48-2" edge="1">
          <mxGeometry relative="1" as="geometry" />
        </mxCell>
        <mxCell id="FvMZWkguoixhMki-qg48-14" value="" style="edgeStyle=orthogonalEdgeStyle;rounded=0;orthogonalLoop=1;jettySize=auto;html=1;fontSize=13;exitX=0.5;exitY=1;exitDx=0;exitDy=0;" parent="1" source="FvMZWkguoixhMki-qg48-13" target="FvMZWkguoixhMki-qg48-1" edge="1">
          <mxGeometry relative="1" as="geometry">
            <Array as="points" />
          </mxGeometry>
        </mxCell>
        <mxCell id="FvMZWkguoixhMki-qg48-20" value="" style="edgeStyle=orthogonalEdgeStyle;rounded=0;orthogonalLoop=1;jettySize=auto;html=1;fontSize=13;" parent="1" source="FvMZWkguoixhMki-qg48-1" target="FvMZWkguoixhMki-qg48-19" edge="1">
          <mxGeometry relative="1" as="geometry" />
        </mxCell>
        <mxCell id="FvMZWkguoixhMki-qg48-1" value="Apache" style="rounded=0;whiteSpace=wrap;html=1;" parent="1" vertex="1">
          <mxGeometry x="70" y="230" width="120" height="60" as="geometry" />
        </mxCell>
        <mxCell id="FvMZWkguoixhMki-qg48-5" value="" style="edgeStyle=orthogonalEdgeStyle;rounded=0;orthogonalLoop=1;jettySize=auto;html=1;entryX=0;entryY=0;entryDx=0;entryDy=52.5;entryPerimeter=0;" parent="1" source="FvMZWkguoixhMki-qg48-2" target="FvMZWkguoixhMki-qg48-21" edge="1">
          <mxGeometry relative="1" as="geometry">
            <mxPoint x="680" y="260" as="targetPoint" />
            <Array as="points">
              <mxPoint x="690" y="250" />
              <mxPoint x="690" y="253" />
            </Array>
          </mxGeometry>
        </mxCell>
        <mxCell id="FvMZWkguoixhMki-qg48-18" value="" style="edgeStyle=orthogonalEdgeStyle;rounded=0;orthogonalLoop=1;jettySize=auto;html=1;fontSize=13;" parent="1" source="FvMZWkguoixhMki-qg48-2" target="FvMZWkguoixhMki-qg48-17" edge="1">
          <mxGeometry relative="1" as="geometry" />
        </mxCell>
        <mxCell id="FvMZWkguoixhMki-qg48-2" value="PHP&lt;span style=&quot;white-space: pre&quot;&gt;	&lt;/span&gt;" style="rounded=0;whiteSpace=wrap;html=1;" parent="1" vertex="1">
          <mxGeometry x="390" y="220" width="120" height="60" as="geometry" />
        </mxCell>
        <mxCell id="FvMZWkguoixhMki-qg48-10" value="Docker for Developer: Developer want to setup local Development Environment quily" style="text;html=1;strokeColor=none;fillColor=none;align=left;verticalAlign=middle;whiteSpace=wrap;rounded=0;fontSize=13;" parent="1" vertex="1">
          <mxGeometry x="-20" y="-50" width="170" height="70" as="geometry" />
        </mxCell>
        <mxCell id="FvMZWkguoixhMki-qg48-13" value="Reverse Proxy" style="rounded=0;whiteSpace=wrap;html=1;" parent="1" vertex="1">
          <mxGeometry x="160" y="70" width="120" height="60" as="geometry" />
        </mxCell>
        <mxCell id="FvMZWkguoixhMki-qg48-15" value="NFS Volume" style="rounded=0;whiteSpace=wrap;html=1;" parent="1" vertex="1">
          <mxGeometry x="720" y="20" width="120" height="60" as="geometry" />
        </mxCell>
        <mxCell id="FvMZWkguoixhMki-qg48-17" value="Redis" style="rounded=0;whiteSpace=wrap;html=1;" parent="1" vertex="1">
          <mxGeometry x="370" y="320" width="120" height="60" as="geometry" />
        </mxCell>
        <mxCell id="FvMZWkguoixhMki-qg48-19" value="Varnish" style="rounded=0;whiteSpace=wrap;html=1;" parent="1" vertex="1">
          <mxGeometry x="228" y="250" width="120" height="60" as="geometry" />
        </mxCell>
        <mxCell id="FvMZWkguoixhMki-qg48-21" value="MySQL" style="shape=cylinder3;whiteSpace=wrap;html=1;boundedLbl=1;backgroundOutline=1;size=15;fontSize=13;fillColor=#66FF66;gradientColor=#E6FFCC;align=left;verticalAlign=top;" parent="1" vertex="1">
          <mxGeometry x="770" y="210" width="60" height="80" as="geometry" />
        </mxCell>
        <mxCell id="FvMZWkguoixhMki-qg48-22" value="" style="endArrow=classic;html=1;fontSize=13;entryX=0;entryY=0.5;entryDx=0;entryDy=0;" parent="1" source="FvMZWkguoixhMki-qg48-2" target="FvMZWkguoixhMki-qg48-15" edge="1">
          <mxGeometry width="50" height="50" relative="1" as="geometry">
            <mxPoint x="360" y="220" as="sourcePoint" />
            <mxPoint x="410" y="170" as="targetPoint" />
            <Array as="points">
              <mxPoint x="450" y="50" />
            </Array>
          </mxGeometry>
        </mxCell>
        <mxCell id="FvMZWkguoixhMki-qg48-24" value="&lt;h1&gt;DB/Volumes&lt;/h1&gt;&lt;p&gt;Volume and DB will always be keep outside the container&lt;/p&gt;" style="text;html=1;strokeColor=none;fillColor=none;spacing=5;spacingTop=-20;whiteSpace=wrap;overflow=hidden;rounded=0;fontSize=13;align=left;verticalAlign=top;" parent="1" vertex="1">
          <mxGeometry x="700" y="-100" width="190" height="120" as="geometry" />
        </mxCell>
        <mxCell id="FvMZWkguoixhMki-qg48-29" style="edgeStyle=orthogonalEdgeStyle;rounded=0;orthogonalLoop=1;jettySize=auto;html=1;exitX=0.5;exitY=1;exitDx=0;exitDy=0;fontSize=13;" parent="1" source="FvMZWkguoixhMki-qg48-10" target="FvMZWkguoixhMki-qg48-10" edge="1">
          <mxGeometry relative="1" as="geometry" />
        </mxCell>
        <mxCell id="XDvnkH30jVrsIT853tuw-1" value="Master Node&lt;br&gt;100.65.232.209" style="rounded=0;whiteSpace=wrap;html=1;" parent="1" vertex="1">
          <mxGeometry x="130" y="520" width="130" height="280" as="geometry" />
        </mxCell>
        <mxCell id="XDvnkH30jVrsIT853tuw-15" value="" style="edgeStyle=orthogonalEdgeStyle;rounded=0;orthogonalLoop=1;jettySize=auto;html=1;" parent="1" source="XDvnkH30jVrsIT853tuw-6" target="XDvnkH30jVrsIT853tuw-14" edge="1">
          <mxGeometry relative="1" as="geometry" />
        </mxCell>
        <mxCell id="XDvnkH30jVrsIT853tuw-6" value="Contract Server Group" style="shape=process;whiteSpace=wrap;html=1;backgroundOutline=1;" parent="1" vertex="1">
          <mxGeometry x="340" y="740" width="120" height="60" as="geometry" />
        </mxCell>
        <mxCell id="XDvnkH30jVrsIT853tuw-11" value="" style="edgeStyle=orthogonalEdgeStyle;rounded=0;orthogonalLoop=1;jettySize=auto;html=1;" parent="1" source="XDvnkH30jVrsIT853tuw-7" target="XDvnkH30jVrsIT853tuw-10" edge="1">
          <mxGeometry relative="1" as="geometry" />
        </mxCell>
        <mxCell id="XDvnkH30jVrsIT853tuw-7" value="Fulfilment Server Group" style="shape=process;whiteSpace=wrap;html=1;backgroundOutline=1;" parent="1" vertex="1">
          <mxGeometry x="340" y="520" width="120" height="60" as="geometry" />
        </mxCell>
        <mxCell id="XDvnkH30jVrsIT853tuw-23" value="" style="edgeStyle=orthogonalEdgeStyle;rounded=0;orthogonalLoop=1;jettySize=auto;html=1;" parent="1" edge="1">
          <mxGeometry relative="1" as="geometry">
            <mxPoint x="460" y="810" as="sourcePoint" />
            <Array as="points">
              <mxPoint x="600" y="810" />
            </Array>
          </mxGeometry>
        </mxCell>
        <mxCell id="XDvnkH30jVrsIT853tuw-35" value="" style="edgeStyle=orthogonalEdgeStyle;rounded=0;orthogonalLoop=1;jettySize=auto;html=1;" parent="1" source="XDvnkH30jVrsIT853tuw-7" target="XDvnkH30jVrsIT853tuw-34" edge="1">
          <mxGeometry relative="1" as="geometry" />
        </mxCell>
        <mxCell id="XDvnkH30jVrsIT853tuw-10" value="" style="whiteSpace=wrap;html=1;" parent="1" vertex="1">
          <mxGeometry x="550" y="470" width="120" height="70" as="geometry" />
        </mxCell>
        <mxCell id="XDvnkH30jVrsIT853tuw-38" value="" style="edgeStyle=orthogonalEdgeStyle;rounded=0;orthogonalLoop=1;jettySize=auto;html=1;exitX=1;exitY=0.5;exitDx=0;exitDy=0;" parent="1" source="XDvnkH30jVrsIT853tuw-6" target="XDvnkH30jVrsIT853tuw-37" edge="1">
          <mxGeometry relative="1" as="geometry">
            <Array as="points">
              <mxPoint x="510" y="770" />
              <mxPoint x="510" y="840" />
            </Array>
          </mxGeometry>
        </mxCell>
        <mxCell id="XDvnkH30jVrsIT853tuw-14" value="" style="whiteSpace=wrap;html=1;" parent="1" vertex="1">
          <mxGeometry x="560" y="690" width="120" height="60" as="geometry" />
        </mxCell>
        <mxCell id="XDvnkH30jVrsIT853tuw-24" value="" style="whiteSpace=wrap;html=1;" parent="1" vertex="1">
          <mxGeometry x="540" y="920" width="120" height="60" as="geometry" />
        </mxCell>
        <mxCell id="XDvnkH30jVrsIT853tuw-26" value="" style="endArrow=classic;html=1;rounded=0;entryX=0;entryY=0.5;entryDx=0;entryDy=0;exitX=1;exitY=0.5;exitDx=0;exitDy=0;" parent="1" source="XDvnkH30jVrsIT853tuw-1" target="XDvnkH30jVrsIT853tuw-6" edge="1">
          <mxGeometry width="50" height="50" relative="1" as="geometry">
            <mxPoint x="260" y="680" as="sourcePoint" />
            <mxPoint x="310" y="630" as="targetPoint" />
          </mxGeometry>
        </mxCell>
        <mxCell id="XDvnkH30jVrsIT853tuw-27" value="" style="endArrow=classic;html=1;rounded=0;exitX=1;exitY=0.5;exitDx=0;exitDy=0;entryX=0;entryY=0.5;entryDx=0;entryDy=0;" parent="1" source="XDvnkH30jVrsIT853tuw-1" target="XDvnkH30jVrsIT853tuw-7" edge="1">
          <mxGeometry width="50" height="50" relative="1" as="geometry">
            <mxPoint x="520" y="650" as="sourcePoint" />
            <mxPoint x="570" y="600" as="targetPoint" />
          </mxGeometry>
        </mxCell>
        <mxCell id="XDvnkH30jVrsIT853tuw-41" style="edgeStyle=orthogonalEdgeStyle;rounded=0;orthogonalLoop=1;jettySize=auto;html=1;entryX=1;entryY=0.75;entryDx=0;entryDy=0;" parent="1" source="XDvnkH30jVrsIT853tuw-30" target="XDvnkH30jVrsIT853tuw-39" edge="1">
          <mxGeometry relative="1" as="geometry" />
        </mxCell>
        <mxCell id="XDvnkH30jVrsIT853tuw-42" style="edgeStyle=orthogonalEdgeStyle;rounded=0;orthogonalLoop=1;jettySize=auto;html=1;entryX=1;entryY=0.5;entryDx=0;entryDy=0;" parent="1" source="XDvnkH30jVrsIT853tuw-30" target="XDvnkH30jVrsIT853tuw-31" edge="1">
          <mxGeometry relative="1" as="geometry" />
        </mxCell>
        <mxCell id="XDvnkH30jVrsIT853tuw-30" value="Nginx&amp;nbsp;" style="rounded=0;whiteSpace=wrap;html=1;" parent="1" vertex="1">
          <mxGeometry x="970" y="640" width="120" height="60" as="geometry" />
        </mxCell>
        <mxCell id="XDvnkH30jVrsIT853tuw-43" style="edgeStyle=orthogonalEdgeStyle;rounded=0;orthogonalLoop=1;jettySize=auto;html=1;entryX=1;entryY=0.5;entryDx=0;entryDy=0;" parent="1" source="XDvnkH30jVrsIT853tuw-31" target="XDvnkH30jVrsIT853tuw-10" edge="1">
          <mxGeometry relative="1" as="geometry" />
        </mxCell>
        <mxCell id="XDvnkH30jVrsIT853tuw-44" style="edgeStyle=orthogonalEdgeStyle;rounded=0;orthogonalLoop=1;jettySize=auto;html=1;entryX=1;entryY=0.5;entryDx=0;entryDy=0;" parent="1" source="XDvnkH30jVrsIT853tuw-31" target="XDvnkH30jVrsIT853tuw-34" edge="1">
          <mxGeometry relative="1" as="geometry" />
        </mxCell>
        <mxCell id="XDvnkH30jVrsIT853tuw-31" value="LB" style="rounded=0;whiteSpace=wrap;html=1;" parent="1" vertex="1">
          <mxGeometry x="735" y="520" width="120" height="60" as="geometry" />
        </mxCell>
        <mxCell id="XDvnkH30jVrsIT853tuw-34" value="" style="whiteSpace=wrap;html=1;" parent="1" vertex="1">
          <mxGeometry x="550" y="560" width="120" height="60" as="geometry" />
        </mxCell>
        <mxCell id="XDvnkH30jVrsIT853tuw-37" value="" style="whiteSpace=wrap;html=1;" parent="1" vertex="1">
          <mxGeometry x="560" y="800" width="120" height="60" as="geometry" />
        </mxCell>
        <mxCell id="XDvnkH30jVrsIT853tuw-45" style="edgeStyle=orthogonalEdgeStyle;rounded=0;orthogonalLoop=1;jettySize=auto;html=1;entryX=1;entryY=0.5;entryDx=0;entryDy=0;" parent="1" source="XDvnkH30jVrsIT853tuw-39" target="XDvnkH30jVrsIT853tuw-14" edge="1">
          <mxGeometry relative="1" as="geometry" />
        </mxCell>
        <mxCell id="XDvnkH30jVrsIT853tuw-46" style="edgeStyle=orthogonalEdgeStyle;rounded=0;orthogonalLoop=1;jettySize=auto;html=1;entryX=1;entryY=0.5;entryDx=0;entryDy=0;" parent="1" source="XDvnkH30jVrsIT853tuw-39" target="XDvnkH30jVrsIT853tuw-37" edge="1">
          <mxGeometry relative="1" as="geometry" />
        </mxCell>
        <mxCell id="XDvnkH30jVrsIT853tuw-39" value="LB" style="rounded=0;whiteSpace=wrap;html=1;" parent="1" vertex="1">
          <mxGeometry x="735" y="740" width="120" height="60" as="geometry" />
        </mxCell>
        <mxCell id="XDvnkH30jVrsIT853tuw-49" value="" style="edgeStyle=orthogonalEdgeStyle;rounded=0;orthogonalLoop=1;jettySize=auto;html=1;" parent="1" source="XDvnkH30jVrsIT853tuw-47" target="XDvnkH30jVrsIT853tuw-48" edge="1">
          <mxGeometry relative="1" as="geometry" />
        </mxCell>
        <mxCell id="XDvnkH30jVrsIT853tuw-47" value="" style="shape=cube;whiteSpace=wrap;html=1;boundedLbl=1;backgroundOutline=1;darkOpacity=0.05;darkOpacity2=0.1;size=10;" parent="1" vertex="1">
          <mxGeometry x="560" y="500" width="40" height="40" as="geometry" />
        </mxCell>
        <mxCell id="XDvnkH30jVrsIT853tuw-48" value="" style="shape=cube;whiteSpace=wrap;html=1;boundedLbl=1;backgroundOutline=1;darkOpacity=0.05;darkOpacity2=0.1;size=10;" parent="1" vertex="1">
          <mxGeometry x="620" y="500" width="40" height="40" as="geometry" />
        </mxCell>
        <mxCell id="XDvnkH30jVrsIT853tuw-54" style="edgeStyle=orthogonalEdgeStyle;rounded=0;orthogonalLoop=1;jettySize=auto;html=1;entryX=0;entryY=0;entryDx=0;entryDy=15;entryPerimeter=0;" parent="1" source="XDvnkH30jVrsIT853tuw-50" target="XDvnkH30jVrsIT853tuw-51" edge="1">
          <mxGeometry relative="1" as="geometry" />
        </mxCell>
        <mxCell id="XDvnkH30jVrsIT853tuw-50" value="" style="shape=cube;whiteSpace=wrap;html=1;boundedLbl=1;backgroundOutline=1;darkOpacity=0.05;darkOpacity2=0.1;size=10;" parent="1" vertex="1">
          <mxGeometry x="560" y="580" width="40" height="40" as="geometry" />
        </mxCell>
        <mxCell id="XDvnkH30jVrsIT853tuw-51" value="" style="shape=cube;whiteSpace=wrap;html=1;boundedLbl=1;backgroundOutline=1;darkOpacity=0.05;darkOpacity2=0.1;size=10;" parent="1" vertex="1">
          <mxGeometry x="620" y="580" width="40" height="40" as="geometry" />
        </mxCell>
        <mxCell id="XDvnkH30jVrsIT853tuw-52" value="" style="shape=cube;whiteSpace=wrap;html=1;boundedLbl=1;backgroundOutline=1;darkOpacity=0.05;darkOpacity2=0.1;size=10;" parent="1" vertex="1">
          <mxGeometry x="150" y="540" width="40" height="40" as="geometry" />
        </mxCell>
        <mxCell id="XDvnkH30jVrsIT853tuw-53" value="" style="shape=cube;whiteSpace=wrap;html=1;boundedLbl=1;backgroundOutline=1;darkOpacity=0.05;darkOpacity2=0.1;size=10;" parent="1" vertex="1">
          <mxGeometry x="150" y="740" width="40" height="40" as="geometry" />
        </mxCell>
      </root>
    </mxGraphModel>
  </diagram>
</mxfile>
